<svg xmlns="http://www.w3.org/2000/svg" viewBox="0 0 86 86">
  <defs>
    <style>
      .cls-1, .cls-5 {
        fill: none;
      }

      .cls-1 {
        stroke: #c9c9c9;
        stroke-width: 3px;
      }

      .cls-2, .cls-3 {
        fill: #c1c1c1;
      }

      .cls-3 {
        font-size: 41px;
        font-family: Times-Bold, Times;
        font-weight: 700;
      }

      .cls-4 {
        stroke: none;
      }
    </style>
  </defs>
  <g id="Group_33" data-name="Group 33" transform="translate(-780 -1704)">
    <g id="Group_24" data-name="Group 24" transform="translate(-6 14)">
      <g id="Group_23" data-name="Group 23" transform="translate(395 1311)">
        <g id="Ellipse_10" data-name="Ellipse 10" class="cls-1" transform="translate(391 379)">
          <circle class="cls-4" cx="43" cy="43" r="43"/>
          <circle class="cls-5" cx="43" cy="43" r="41.5"/>
        </g>
      </g>
      <g id="Simpleicons_Interface_link-symbol" transform="translate(799.999 1700.754)">
        <path id="Path_14" data-name="Path 14" class="cls-2" d="M32.536,15.983,25.914,22.6a9.252,9.252,0,0,1-14.661-1.888l3.077-3.077a2.209,2.209,0,0,1,.5-.332,4.607,4.607,0,0,0,1.156,1.986,4.685,4.685,0,0,0,6.62,0l6.62-6.62A4.681,4.681,0,0,0,22.6,6.052L20.25,8.408a11.746,11.746,0,0,0-5.972-.65l5.016-5.016A9.363,9.363,0,0,1,32.536,15.983ZM15.03,26.868l-2.356,2.357A4.682,4.682,0,1,1,6.053,22.6l6.621-6.62a4.684,4.684,0,0,1,6.62,0,4.633,4.633,0,0,1,1.157,1.984,2.248,2.248,0,0,0,.5-.329l3.077-3.075A9.2,9.2,0,0,0,22.6,12.673a9.362,9.362,0,0,0-13.241,0l-6.62,6.62A9.363,9.363,0,1,0,15.984,32.534L21,27.517A11.739,11.739,0,0,1,15.03,26.868Z" transform="translate(0 0)"/>
      </g>
    </g>
    <text id="T" class="cls-3" transform="translate(837 1772)"><tspan x="-13.673" y="0">T</tspan></text>
  </g>
</svg>
