<svg xmlns="http://www.w3.org/2000/svg" viewBox="0 0 86 86">
  <defs>
    <style>
      .cls-1, .cls-4 {
        fill: none;
      }

      .cls-1 {
        stroke: #c9c9c9;
        stroke-width: 3px;
      }

      .cls-2 {
        fill: #c1c1c1;
      }

      .cls-3 {
        stroke: none;
      }
    </style>
  </defs>
  <g id="Group_28" data-name="Group 28" transform="translate(-925 -1763)">
    <g id="Group_25" data-name="Group 25" transform="translate(534 1384)">
      <g id="Ellipse_10" data-name="Ellipse 10" class="cls-1" transform="translate(391 379)">
        <circle class="cls-3" cx="43" cy="43" r="43"/>
        <circle class="cls-4" cx="43" cy="43" r="41.5"/>
      </g>
    </g>
    <g id="_37976" data-name="37976" transform="translate(945.961 1783.863)">
      <g id="Group_27" data-name="Group 27" transform="translate(0)">
        <path id="Path_15" data-name="Path 15" class="cls-2" d="M288.365,286.873a2.561,2.561,0,0,0-1.958,1.152v-4.637h-1.93v14.2h1.93v-1.037a2.606,2.606,0,0,0,1.958,1.181,1.475,1.475,0,0,0,1.526-1.21,7.524,7.524,0,0,0,.2-2.1v-4.205a7.669,7.669,0,0,0-.2-2.131A1.475,1.475,0,0,0,288.365,286.873Zm-.173,7.689q0,1.413-.835,1.411a1.35,1.35,0,0,1-.95-.46v-6.452a1.353,1.353,0,0,1,.95-.46q.835,0,.835,1.44Z" transform="translate(-261.724 -260.721)"/>
        <path id="Path_16" data-name="Path 16" class="cls-2" d="M376.292,326.967a2.74,2.74,0,0,0-2.3,1.095,4.2,4.2,0,0,0-.576,2.476v3.716a4.048,4.048,0,0,0,.6,2.476,2.765,2.765,0,0,0,2.333,1.094,2.6,2.6,0,0,0,2.3-1.152,2.7,2.7,0,0,0,.432-1.152,9.673,9.673,0,0,0,.057-1.239v-.259h-1.958v.619q0,.3-.014.476c-.01.115-.014.182-.014.2a.833.833,0,0,1-.864.748q-.98,0-.979-1.468v-1.872h3.83v-2.188a4.131,4.131,0,0,0-.6-2.476A2.59,2.59,0,0,0,376.292,326.967Zm.922,4.176h-1.9v-.98q0-1.468.95-1.468t.951,1.468Z" transform="translate(-343.546 -300.816)"/>
        <path id="Path_17" data-name="Path 17" class="cls-2" d="M198.744,336.829q-.634.893-1.21.892-.4,0-.432-.432a4.281,4.281,0,0,1-.029-.748v-7.776h-1.9v8.352a4.9,4.9,0,0,0,.173,1.555,1.131,1.131,0,0,0,1.21.807,3.064,3.064,0,0,0,2.189-1.3v1.152h1.93V328.765h-1.93v8.064Z" transform="translate(-179.563 -302.47)"/>
        <path id="Path_18" data-name="Path 18" class="cls-2" d="M260.551,107.2q.922,0,.922-1.469v-4.494q0-1.5-.922-1.5t-.922,1.5v4.494Q259.629,107.2,260.551,107.2Z" transform="translate(-238.864 -91.761)"/>
        <path id="Path_19" data-name="Path 19" class="cls-2" d="M108.03,285.4h2.246v12.183h2.131V285.4h2.3v-2.016H108.03Z" transform="translate(-99.39 -260.721)"/>
        <path id="Path_20" data-name="Path 20" class="cls-2" d="M35.943,0H8.295A7.994,7.994,0,0,0,2.434,2.433,7.992,7.992,0,0,0,0,8.295V35.943A7.985,7.985,0,0,0,2.434,41.8a7.99,7.99,0,0,0,5.861,2.435H35.943a8.311,8.311,0,0,0,8.294-8.295V8.295A7.993,7.993,0,0,0,41.8,2.433,7.994,7.994,0,0,0,35.943,0ZM26.122,6.394h1.93v7.833a4.366,4.366,0,0,0,.029.749c.019.308.173.461.461.461q.576,0,1.209-.893V6.394h1.93V17.05h-1.93V15.9a3.219,3.219,0,0,1-2.218,1.3,1.211,1.211,0,0,1-1.238-.777,5.378,5.378,0,0,1-.173-1.584V6.394ZM18.835,9.849a4.266,4.266,0,0,1,.6-2.505A2.588,2.588,0,0,1,21.687,6.25a2.683,2.683,0,0,1,2.246,1.095,4.267,4.267,0,0,1,.6,2.505v3.744a4.107,4.107,0,0,1-.6,2.505,2.679,2.679,0,0,1-2.246,1.095A2.585,2.585,0,0,1,19.44,16.1a4.26,4.26,0,0,1-.6-2.505V9.849ZM13.652,2.736l1.527,5.616,1.468-5.616h2.16l-2.592,8.525V17.05H14.084V11.262a39.572,39.572,0,0,0-1.325-4.551q-.2-.662-.663-1.988t-.691-1.987h2.247ZM37.383,37.5a4.05,4.05,0,0,1-1.224,2.1,3.774,3.774,0,0,1-2.174,1.008q-3.946.432-11.866.432t-11.866-.432A3.773,3.773,0,0,1,8.079,39.6a4.038,4.038,0,0,1-1.224-2.1A35.268,35.268,0,0,1,6.28,30.01a36.026,36.026,0,0,1,.576-7.488,3.983,3.983,0,0,1,1.224-2.116,3.848,3.848,0,0,1,2.2-.995,118.093,118.093,0,0,1,11.837-.432,118.349,118.349,0,0,1,11.866.432,3.89,3.89,0,0,1,2.189.995,3.94,3.94,0,0,1,1.238,2.116,36.856,36.856,0,0,1,.547,7.488A35.349,35.349,0,0,1,37.383,37.5Z" transform="translate(0)"/>
      </g>
    </g>
  </g>
</svg>
