<svg xmlns="http://www.w3.org/2000/svg" viewBox="0 0 62.188 61.302">
  <defs>
    <style>
      .cls-1 {
        fill: #fff;
      }
    </style>
  </defs>
  <path id="Path_28" data-name="Path 28" class="cls-1" d="M57.339,4A13.522,13.522,0,0,0,38.2,4L3.113,39.071c-.274.274-1.306,1.235-1.359,1.613L-.875,58.731c-.078.549,1.01,1.7,1.389,2.077a1.784,1.784,0,0,0,1.241.523,1.42,1.42,0,0,0,.235-.013l11.7.013c.967-.131,1.4-2.155,1.267-3.122S13,56.118,12.032,56.249H4.511L5.868,45.507l13.9,12.7a1.784,1.784,0,0,0,1.241.523,1.73,1.73,0,0,0,1.241-.523L57.339,23.134A13.514,13.514,0,0,0,57.339,4ZM38.2,11.494l3.988,3.774L13.05,44.294l-4.157-3.61ZM21.553,52.4l-4.085-3.7L46.634,19.261l3.944,3.549ZM55.5,19.933,41.4,5.838c1.79-1.476,3.59-1.152,5.941-1.152,2.678,0,4.878,1.543,6.772,3.424a6.345,6.345,0,0,1,2.079,3.08,5.111,5.111,0,0,1,.218,2.368C56.412,15.923,56.973,18.143,55.5,19.933Z" transform="translate(0.879 -0.028)"/>
</svg>
