<svg xmlns="http://www.w3.org/2000/svg" viewBox="0 0 40 12.637">
  <defs>
    <style>
      .cls-1 {
        fill: #fff;
      }
    </style>
  </defs>
  <path id="Path_27" data-name="Path 27" class="cls-1" d="M152.141,5.6V1.218A1.218,1.218,0,0,0,150.923,0h-18.1a1.218,1.218,0,0,0-1.218,1.218v5.9h-8.515a1.218,1.218,0,0,0-1.218,1.218v3.08a1.218,1.218,0,0,0,1.218,1.218h37.564a1.218,1.218,0,0,0,1.218-1.218V8.339a1.218,1.218,0,0,0-1.218-1.218h-8.515V5.6ZM147.573,6.87h-11.4v-2.3h11.4v2.3Z" transform="translate(-121.874)"/>
</svg>
