<svg xmlns="http://www.w3.org/2000/svg" viewBox="0 0 346 52">
  <defs>
    <style>
      .cls-1, .cls-2 {
        fill: #555;
      }

      .cls-1 {
        font-size: 41px;
        font-family: HelveticaNeue-Bold, Helvetica Neue;
        font-weight: 700;
      }

      .cls-2, .cls-3, .cls-4 {
        fill-rule: evenodd;
      }

      .cls-3 {
        fill: #8bc34a;
      }

      .cls-4 {
        fill: #ffc107;
      }
    </style>
  </defs>
  <g id="Group_3" data-name="Group 3" transform="translate(-111 -41)">
    <g id="Group_2" data-name="Group 2">
      <text id="COMPARE.IO" class="cls-1" transform="translate(193 84)"><tspan x="0" y="0">COMPARE.IO</tspan></text>
      <path id="path0" class="cls-2" d="M34.281.282a1.8,1.8,0,0,1-.544.027c-.06-.023-.109-.007-.109.036s-.108.08-.241.084A.879.879,0,0,0,33.045.5.782.782,0,0,1,32.8.584a4.674,4.674,0,0,0-.666.259,1.447,1.447,0,0,1-.525.182c0-.03-.028-.015-.06.034a1.055,1.055,0,0,1-.306.216,9.26,9.26,0,0,0-2.458,2.276,5.254,5.254,0,0,1-.44.543c-.045.033-.053.06-.02.06s-.031.148-.145.328a2.193,2.193,0,0,0-.373.823.05.05,0,0,1-.054.06c-.037,0-.068.045-.069.1a7.171,7.171,0,0,1-.22.786,6.919,6.919,0,0,0,.033,4.256c.137.388.263.765.28.838a10.758,10.758,0,0,0,2.453,3.218c.238.2.476.395.528.439a10.766,10.766,0,0,0,1.338.727c.022,0,.385.121.807.259a7.748,7.748,0,0,0,2.736.379,2.183,2.183,0,0,1,.444-.043,7.566,7.566,0,0,0,1.549-.364.619.619,0,0,1,.356-.069c.042.026.077.007.077-.043s.036-.068.081-.04.081.011.081-.036.063-.085.141-.086a2.147,2.147,0,0,0,.6-.28,1.994,1.994,0,0,1,.464-.242c0,.021.063-.019.141-.088a4.2,4.2,0,0,1,.968-.68.1.1,0,0,0,.1-.092,3.054,3.054,0,0,1,.5-.626,8.1,8.1,0,0,0,1.807-3.071.781.781,0,0,1,.112-.29c.041-.05.054-.112.027-.138a.129.129,0,0,1,.011-.143,11.768,11.768,0,0,0,0-3.481.279.279,0,0,1-.007-.222c.029-.046.01-.084-.042-.084s-.075-.051-.051-.113A.175.175,0,0,0,43,5.976a.359.359,0,0,1-.068-.169,10.834,10.834,0,0,0-.969-1.914,2.9,2.9,0,0,1-.273-.427,10.747,10.747,0,0,0-1.832-1.811,1.331,1.331,0,0,1-.3-.189A7.793,7.793,0,0,0,37.255.488a.09.09,0,0,1-.118-.042A.094.094,0,0,0,37.01.408.18.18,0,0,1,36.84.4a.849.849,0,0,0-.3-.074A12.463,12.463,0,0,0,34.281.282M32.338,19.72a11.107,11.107,0,0,0-1.205.15,1.085,1.085,0,0,1-.423.044c-.036-.022-.065-.006-.065.035s-.082.075-.182.075c-.727,0-3.423,1.589-4.607,2.715a3.83,3.83,0,0,1-.525.451c-.028,0-.086.07-.13.155a9.948,9.948,0,0,1-.688.867c-.334.391-1,1.183-1.482,1.76s-.915,1.085-.965,1.129a3.7,3.7,0,0,0-.3.363c-.117.155-.281.355-.364.444s-.439.506-.791.927c-1.535,1.834-2.011,2.4-2.251,2.662-.14.155-.477.541-.748.858s-.529.552-.573.524a4.258,4.258,0,0,1-.608-1.251c.027-.027.008-.05-.044-.05s-.087-.027-.078-.06a3.293,3.293,0,0,0-.279-.636,1.826,1.826,0,0,1-.244-.625c.027-.027.008-.05-.044-.05a.1.1,0,0,1-.094-.1,3.109,3.109,0,0,0-.235-.6,1.464,1.464,0,0,1-.188-.544c.026-.026,0-.047-.06-.047s-.083-.024-.053-.054.007-.111-.05-.181a4.048,4.048,0,0,1-.318-.612c-.117-.266-.379-.842-.581-1.278s-.368-.815-.368-.839c0-.048-.2-.476-.834-1.794a6.582,6.582,0,0,1-.392-.907c.009-.033-.02-.06-.064-.06s-.072-.029-.06-.065a4.542,4.542,0,0,0-.383-.8l-.4-.74-4.641,0-4.642,0-.295.3a1.555,1.555,0,0,0-.416,1.765c.381.921,1.007,1.074,4.4,1.077,2.052,0,2-.009,2.028.4a.437.437,0,0,0,.109.147A.378.378,0,0,1,8.3,25.5a4.105,4.105,0,0,0,.324.76,3.652,3.652,0,0,1,.287.644,3.611,3.611,0,0,0,.281.643c.174.353.327.686.338.738s.157.382.324.731a7.376,7.376,0,0,1,.3.685c0,.027.2.507.453,1.066a9.794,9.794,0,0,1,.754,1.814.151.151,0,0,0,.078.127.375.375,0,0,1,.121.219,4.986,4.986,0,0,0,.317.731,1.772,1.772,0,0,1,.235.617c-.027.027-.008.05.044.05s.087.027.077.06a2.8,2.8,0,0,0,.222.585,2.607,2.607,0,0,1,.219.585c-.011.033.022.06.074.06s.071.023.043.052,0,.146.066.262c.255.455,1.349,2.8,1.353,2.9.01.3,1.022,1.146,1.287,1.08.033-.008.06.018.06.058s.073.054.161.031.161-.009.161.032a2.271,2.271,0,0,0,1.016.008,3.014,3.014,0,0,1,.355-.133,8.015,8.015,0,0,0,1.9-1.785,4.623,4.623,0,0,1,.529-.551.122.122,0,0,0,.073-.107,7.407,7.407,0,0,1,.746-.929c.41-.466.946-1.092,1.19-1.391s.575-.681.735-.85l.292-.307.185,1c.1.549.189,1.108.194,1.241a.9.9,0,0,0,.068.335.279.279,0,0,1,.011.218.287.287,0,0,0,.013.223.875.875,0,0,1,.079.306c.024.276.083.64.315,1.952a6.948,6.948,0,0,1,.15,1.27c-.025.1-.007.172.042.172s.085.1.083.222a3.1,3.1,0,0,0,.037.464c.022.133.061.387.086.565s.136.845.246,1.484a7.633,7.633,0,0,1,.156,1.234c-.024.039,0,.124.052.188a.275.275,0,0,1,.047.246.283.283,0,0,0,.01.223.788.788,0,0,1,.073.3c.021.311.076.668.3,1.963a7.559,7.559,0,0,1,.163,1.274.181.181,0,0,0,.041.185.266.266,0,0,1,.038.239.278.278,0,0,0,.046.249c.053.064.077.148.053.187a14.5,14.5,0,0,0,.314,2.021l.045.189,9.666-.024c10.648-.027,9.958.008,9.8-.483a.325.325,0,0,1,.043-.274.19.19,0,0,0,.048-.188,13.86,13.86,0,0,1,.232-1.71,16.052,16.052,0,0,0,.239-1.7c-.021-.034,0-.087.05-.117s.067-.139.041-.243-.008-.212.041-.242a.193.193,0,0,0,.049-.2,10.827,10.827,0,0,1,.2-1.5,16.144,16.144,0,0,0,.328-2.2.554.554,0,0,1,.079-.3.166.166,0,0,0,.035-.171,9.945,9.945,0,0,1,.2-1.435,15.652,15.652,0,0,0,.334-2.209.553.553,0,0,1,.079-.3.167.167,0,0,0,.034-.173,12.387,12.387,0,0,1,.233-1.628,14.255,14.255,0,0,0,.24-1.616.094.094,0,0,1,.049-.119c.049-.03.067-.139.041-.243s-.011-.21.034-.238.063-.13.04-.227c-.1-.43.1-.418.5.031.861.951.989,1.105.989,1.193,0,.05.028.091.061.091a15.313,15.313,0,0,1,1.369,1.561,13.363,13.363,0,0,0,2.7,2.677c.122.027.222.074.222.1a3.811,3.811,0,0,0,1.185-.015.176.176,0,0,1,.154,0c.062.024.113,0,.113-.046s.027-.082.06-.073c.127.035.568-.261.842-.564a15.792,15.792,0,0,0,1.436-2.8.426.426,0,0,1,.127-.235c.07-.07.108-.127.085-.127a2.5,2.5,0,0,1,.23-.585c.15-.322.478-1.055.73-1.63s.545-1.226.651-1.447a2.9,2.9,0,0,0,.194-.463,5.555,5.555,0,0,1,.275-.65,21.289,21.289,0,0,0,.935-2.149c0-.051.03-.093.067-.093s.068-.045.069-.1a3.424,3.424,0,0,1,.261-.625,6.088,6.088,0,0,0,.288-.645c.035-.148.912-2.151,1.174-2.682l.189-.383.932,0a20.032,20.032,0,0,0,4.747-.334c.536-.266,1.105-1.37.842-1.633a.252.252,0,0,1-.068-.114c-.041-.321-.4-.68-.92-.926a55.2,55.2,0,0,0-8.025-.159l-1.29.064-.511.968a9.85,9.85,0,0,0-.517,1.069.1.1,0,0,1-.087.1c-.044,0-.059.021-.034.047a7.869,7.869,0,0,1-.662,1.486.362.362,0,0,0-.069.155,4.638,4.638,0,0,1-.248.565,3.388,3.388,0,0,0-.224.517,5.866,5.866,0,0,1-.291.686c-.16.34-.46,1-.667,1.466s-.52,1.146-.694,1.511a7.6,7.6,0,0,0-.313.706,14.965,14.965,0,0,1-1.037,1.977,14.527,14.527,0,0,1-1.585-1.734c-.261-.311-.512-.6-.558-.654-.268-.286-.989-1.131-1.088-1.274A1.841,1.841,0,0,0,50.086,29c-.138-.123-1.053-1.2-1.053-1.237a.84.84,0,0,0-.182-.231c-.1-.1-.581-.656-1.069-1.232s-.941-1.105-1.007-1.177-.375-.417-.685-.768a14.488,14.488,0,0,0-3.348-3.067,17.464,17.464,0,0,0-2.665-1.263c-.087-.007-.158-.033-.158-.058s-.063-.049-.141-.052-.372-.046-.653-.095c-.651-.113-5.666-.185-6.787-.1" transform="translate(110.713 40.753)"/>
    </g>
    <path id="path0-2" data-name="path0" class="cls-3" d="M56.212,11.576v7.259H70.569V4.317H56.212v7.259" transform="translate(111.713 40.753)"/>
    <path id="path0-3" data-name="path0" class="cls-4" d="M7.7,4.982c-.121.233-.283.514-.361.625a1.724,1.724,0,0,0-.2.383c-.031.1-.09.181-.132.181a.082.082,0,0,0-.075.087,7.016,7.016,0,0,1-.458.907C5.766,8.434,5.222,9.414,5.079,9.681a10.377,10.377,0,0,1-.845,1.43c-.047.033-.054.06-.016.06s.017.083-.049.183-.329.581-.586,1.069a6.963,6.963,0,0,1-.556.946c-.049.033-.061.06-.027.06s-.024.137-.129.3-.4.7-.656,1.19a6.74,6.74,0,0,1-.557.946c-.05.033-.064.06-.032.061a4.363,4.363,0,0,1-.619,1.149c-.047.033-.059.06-.027.06a2.518,2.518,0,0,1-.293.686c-.194.376-.373.739-.4.807-.042.108.82.122,7.738.122,8.224,0,8.1.005,7.686-.323a9.017,9.017,0,0,1-.449-.807c-.219-.421-.49-.912-.6-1.089s-.421-.74-.687-1.25-.6-1.113-.739-1.34a2.475,2.475,0,0,1-.255-.484,1.931,1.931,0,0,0-.238-.429.991.991,0,0,1-.2-.417.058.058,0,0,0-.035-.086,4.806,4.806,0,0,1-.475-.793c-.222-.421-.535-.984-.7-1.25a3.979,3.979,0,0,1-.292-.537,5.562,5.562,0,0,0-.363-.641,4.394,4.394,0,0,1-.363-.661.921.921,0,0,0-.156-.292,1.31,1.31,0,0,1-.182-.335.356.356,0,0,0-.07-.156,13.408,13.408,0,0,1-.68-1.21,5.729,5.729,0,0,0-.3-.535,2.872,2.872,0,0,1-.3-.585c0-.05-.027-.09-.06-.091A1.484,1.484,0,0,1,8.272,5c-.285-.545-.3-.545-.577-.02" transform="translate(110.713 40.753)"/>
  </g>
</svg>
